<svg width="16" height="16" version="1.1" viewBox="0 0 16 16" xmlns="http://www.w3.org/2000/svg">
 <polygon points="13.789 2.09 15.535 3.837 6.292 13.08 1.95 8.738 3.698 6.99 6.293 9.585" fill="#59A869"/>
 <g transform="matrix(.079611 0 0 .079611 8.2839 7.9655)">
  <path fill="#c4c4c4" d="m95.75 92.664c-8.234-1.257-13.26-3.228-18.553-9.923-1.504-2.583-1.936-5.278-2.156-7.333-0.994-9.232 1.91-18.642 0.863-27.183-1.225-9.973-8.545-18.249-16.396-23.297-9.628-6.191-21.948-6.51-33.036-6.034-2.83 0.124-5.501 1.37-8.233 1.897-1.065 0.205-5.304 1.725-6.189 1.119l-9.493-16.396c14.792-6.224 38.725-7.881 54.796-1.293 15.766 6.462 29.471 19.899 31.063 35.808 0.324 3.245 0.35 7.373 0 11.648-1.055 12.831-10.957 27.535-0.865 34.947 2.287 1.682 9.275 2.499 8.199 6.04z"/>
  <path fill="#c4c4c4" d="m73.744 83.174c-6.211-0.336-12.607-1-17.258 0-2.797 0.601-5.899 2.967-8.627 4.743-7.837 5.112-15.311 11.552-27.612 12.083 1.705-8.911 2.021-22.388 0.863-33.22 2.524-1.936 7.239-1.682 9.059-4.315-1.735-5.149-8.26-0.072-11.216 1.295-1.137 3.958-1.322 8.021-0.863 11.648-2.204 0.384-3.717 1.458-6.04 1.727-0.044-8.216 2.98-15.592 5.608-22.868 2.479-6.865 5.078-12.505 9.061-15.101 6.617-4.509 20.44-5.854 28.475-3.019 5.125 1.806 9.965 6.976 12.082 11.217 4.734 9.5-0.432 27.127 6.468 35.81z"/>
  <path fill="#c4c4c4" d="m27.383 34.734c-0.083 0.064-0.188 0.109-0.317 0.133-1.064 0.197-2.506-1.581-3.27-2.143-1.52-1.118-3.039-2.235-4.558-3.353-1.819-1.339-3.638-2.677-5.458-4.016 0 0 5.618-2.927 9.918-3.017 0.946 2.752 1.893 5.505 2.839 8.258 0.293 0.85 1.709 3.476 0.846 4.138z"/>
  <path fill="#c4c4c4" d="m30.601 33.989-3.018-12.489s2.738-0.496 4.744-0.456l0.677 12.206z"/>
  <path fill="#c4c4c4" d="m35.181 32.564 0.597-11.52h3.885l-2.241 11.52z"/>
  <path fill="#c4c4c4" d="m40.094 32.263 2.589-9.924 3.018 0.434-3.701 9.791z"/>
  <path fill="#c4c4c4" d="m45.638 32.263 2.621-9.096 2.621 1.33-4.297 8.067z"/>
  <path fill="#c4c4c4" d="m50.017 32.695 3.452-7.336 2.156 0.863-4.745 6.473z"/>
  <path fill="#c4c4c4" d="m54.33 33.989 3.451-6.471 1.727 0.863-4.424 5.67z"/>
  <path fill="#c4c4c4" d="m57.781 35.333 3.386-6.09 1.792 1.295-4.709 5.212z"/>
  <path fill="#c4c4c4" d="m60.37 36.361 4.316-4.529 0.431 1.335z"/>
  <path fill="#c4c4c4" d="m62.529 38.52 3.883-3.669 1.005 0.899z"/>
  <path fill="#c4c4c4" d="m64.686 39.597 3.561-2.912 0.42 1.456z"/>
  <path fill="#c4c4c4" d="m66.467 41.323 2.572-0.647v0.323l-2.363 0.751z"/>
 </g>
</svg>
