<?xml version="1.0" encoding="UTF-8" standalone="no"?>
<svg
   xmlns:dc="http://purl.org/dc/elements/1.1/"
   xmlns:cc="http://creativecommons.org/ns#"
   xmlns:rdf="http://www.w3.org/1999/02/22-rdf-syntax-ns#"
   xmlns:svg="http://www.w3.org/2000/svg"
   xmlns="http://www.w3.org/2000/svg"
   xmlns:sodipodi="http://sodipodi.sourceforge.net/DTD/sodipodi-0.dtd"
   xmlns:inkscape="http://www.inkscape.org/namespaces/inkscape"
   enable-background="new 0 0 100 100"
   fill="#1a1a1a"
   version="1.1"
   viewBox="0 0 16 16"
   xml:space="preserve"
   id="svg32"
   sodipodi:docname="verifyTests[gray].svg"
   inkscape:version="0.92.3 (2405546, 2018-03-11)"><metadata
   id="metadata38"><rdf:RDF><cc:Work
       rdf:about=""><dc:format>image/svg+xml</dc:format><dc:type
         rdf:resource="http://purl.org/dc/dcmitype/StillImage" /></cc:Work></rdf:RDF></metadata><defs
   id="defs36" /><sodipodi:namedview
   pagecolor="#ffffff"
   bordercolor="#666666"
   borderopacity="1"
   objecttolerance="10"
   gridtolerance="10"
   guidetolerance="10"
   inkscape:pageopacity="0"
   inkscape:pageshadow="2"
   inkscape:window-width="4096"
   inkscape:window-height="2179"
   id="namedview34"
   showgrid="false"
   inkscape:zoom="14.75"
   inkscape:cx="8"
   inkscape:cy="8"
   inkscape:window-x="-13"
   inkscape:window-y="-13"
   inkscape:window-maximized="1"
   inkscape:current-layer="svg32" />
    <g
   transform="matrix(.15319 0 0 .15319 .55845 .35998)"
   clip-rule="evenodd"
   fill="#1a1a1a"
   fill-rule="evenodd"
   id="g30"
   style="fill:#cbcbcb;fill-opacity:1"><path
     d="m95.75 92.664c-8.234-1.257-13.26-3.228-18.553-9.923-1.504-2.583-1.936-5.278-2.156-7.333-0.994-9.232 1.91-18.642 0.863-27.183-1.225-9.973-8.545-18.249-16.396-23.297-9.628-6.191-21.948-6.51-33.036-6.034-2.83 0.124-5.501 1.37-8.233 1.897-1.065 0.205-5.304 1.725-6.189 1.119l-9.493-16.396c14.792-6.224 38.725-7.881 54.796-1.293 15.766 6.462 29.471 19.899 31.063 35.808 0.324 3.245 0.35 7.373 0 11.648-1.055 12.831-10.957 27.535-0.865 34.947 2.287 1.682 9.275 2.499 8.199 6.04z"
     id="path2"
     style="fill:#cbcbcb;fill-opacity:1" /><path
     d="m73.744 83.174c-6.211-0.336-12.607-1-17.258 0-2.797 0.601-5.899 2.967-8.627 4.743-7.837 5.112-15.311 11.552-27.612 12.083 1.705-8.911 2.021-22.388 0.863-33.22 2.524-1.936 7.239-1.682 9.059-4.315-1.735-5.149-8.26-0.072-11.216 1.295-1.137 3.958-1.322 8.021-0.863 11.648-2.204 0.384-3.717 1.458-6.04 1.727-0.044-8.216 2.98-15.592 5.608-22.868 2.479-6.865 5.078-12.505 9.061-15.101 6.617-4.509 20.44-5.854 28.475-3.019 5.125 1.806 9.965 6.976 12.082 11.217 4.734 9.5-0.432 27.127 6.468 35.81z"
     id="path4"
     style="fill:#cbcbcb;fill-opacity:1" /><path
     d="m27.383 34.734c-0.083 0.064-0.188 0.109-0.317 0.133-1.064 0.197-2.506-1.581-3.27-2.143-1.52-1.118-3.039-2.235-4.558-3.353-1.819-1.339-3.638-2.677-5.458-4.016 0 0 5.618-2.927 9.918-3.017 0.946 2.752 1.893 5.505 2.839 8.258 0.293 0.85 1.709 3.476 0.846 4.138z"
     id="path6"
     style="fill:#cbcbcb;fill-opacity:1" /><path
     d="m30.601 33.989-3.018-12.489s2.738-0.496 4.744-0.456l0.677 12.206z"
     id="path8"
     style="fill:#cbcbcb;fill-opacity:1" /><polygon
     points="39.663 21.044 37.422 32.564 35.181 32.564 35.778 21.044"
     id="polygon10"
     style="fill:#cbcbcb;fill-opacity:1" /><polygon
     points="45.701 22.773 42 32.564 40.094 32.263 42.683 22.339"
     id="polygon12"
     style="fill:#cbcbcb;fill-opacity:1" /><polygon
     points="50.88 24.497 46.583 32.564 45.638 32.263 48.259 23.167"
     id="polygon14"
     style="fill:#cbcbcb;fill-opacity:1" /><polygon
     points="55.625 26.222 50.88 32.695 50.017 32.695 53.469 25.359"
     id="polygon16"
     style="fill:#cbcbcb;fill-opacity:1" /><polygon
     points="59.508 28.381 55.084 34.051 54.33 33.989 57.781 27.518"
     id="polygon18"
     style="fill:#cbcbcb;fill-opacity:1" /><polygon
     points="62.959 30.538 58.25 35.75 57.781 35.333 61.167 29.243"
     id="polygon20"
     style="fill:#cbcbcb;fill-opacity:1" /><polygon
     points="60.37 36.361 64.686 31.832 65.117 33.167"
     id="polygon22"
     style="fill:#cbcbcb;fill-opacity:1" /><polygon
     points="62.529 38.52 66.412 34.851 67.417 35.75"
     id="polygon24"
     style="fill:#cbcbcb;fill-opacity:1" /><polygon
     points="64.686 39.597 68.247 36.685 68.667 38.141"
     id="polygon26"
     style="fill:#cbcbcb;fill-opacity:1" /><polygon
     points="69.039 40.999 66.676 41.75 66.467 41.323 69.039 40.676"
     id="polygon28"
     style="fill:#cbcbcb;fill-opacity:1" /></g>
</svg>